<svg width="53" height="34" viewBox="0 0 53 34" fill="none" xmlns="http://www.w3.org/2000/svg">
<path d="M29.8173 7.59402C29.8173 7.19538 29.4785 6.87646 29.0998 6.87646H25.1732C24.7746 6.87646 24.4557 7.21531 24.4557 7.59402V14.1117H17.8184C17.4197 14.1117 17.1008 14.4506 17.1008 14.8293V18.6761C17.1008 19.0747 17.4397 19.3936 17.8184 19.3936H24.4557V25.9113C24.4557 26.31 24.7945 26.6289 25.1732 26.6289H29.0998C29.2991 26.6289 29.4785 26.5492 29.5981 26.4296C29.7376 26.31 29.8173 26.1107 29.8173 25.9113V19.3936H36.4546C36.8532 19.3936 37.1722 19.0548 37.1722 18.6761V14.8293C37.1722 14.6299 37.0924 14.4506 36.9529 14.331C36.8134 14.1914 36.634 14.1117 36.4347 14.1117H29.7974V7.59402H29.8173Z" fill="white"/>
<path d="M20.9082 28.9806C26.1104 30.1565 34.7807 31.0136 39.5444 25.3928C46.2415 17.5198 38.0894 9.08862 38.0894 9.08862C40.84 14.0915 40.2221 20.2106 37.2523 23.9577C34.6412 27.2664 26.6884 29.5387 20.9082 28.9806Z" fill="white"/>
<path d="M20.9077 28.981C18.3565 28.4029 16.6423 27.7651 16.6423 27.7651C17.7784 28.4428 19.2534 28.8215 20.9077 28.981Z" fill="white"/>
<path d="M47.8944 0C51.3824 8.05245 49.8277 17.7592 43.2502 24.3367C35.9751 31.6119 24.8532 32.748 16.4021 27.7052C16.4021 27.7052 36.5332 41.219 49.4092 25.433C50.4058 24.2172 51.203 23.0013 51.8209 21.7855C50.7247 23.7587 49.7679 24.9945 49.7679 24.9945C56.0465 14.5303 51.1233 4.68397 47.8944 0Z" fill="white"/>
<path d="M31.9098 4.5445C26.7076 3.36852 18.0373 2.51146 13.2736 8.13223C6.57651 16.0053 14.7286 24.4364 14.7286 24.4364C11.978 19.4336 12.5959 13.3145 15.5658 9.56731C18.1569 6.27856 26.1097 3.98641 31.9098 4.5445Z" fill="white"/>
<path d="M31.9097 4.54443C34.4609 5.12246 36.1751 5.76027 36.1751 5.76027C35.039 5.10252 33.564 4.70389 31.9097 4.54443Z" fill="white"/>
<path d="M4.90236 33.5453C1.4143 25.4929 2.96898 15.7861 9.54647 9.20858C16.8216 1.93347 27.9435 0.797362 36.3946 5.84011C36.3946 5.84011 16.2635 -7.67366 3.38755 8.11233C2.39096 9.32817 1.59368 10.544 0.975797 11.7598C2.07205 9.7866 3.02877 8.55083 3.02877 8.55083C-3.24975 18.9951 1.67341 28.8414 4.90236 33.5453Z" fill="white"/>
</svg>
